<?xml version="1.0" encoding="utf-8"?>
<!-- Generator: Adobe Illustrator 23.0.5, SVG Export Plug-In . SVG Version: 6.00 Build 0)  -->
<svg version="1.1" id="Layer_1" xmlns="http://www.w3.org/2000/svg" xmlns:xlink="http://www.w3.org/1999/xlink" x="0px" y="0px"
	 viewBox="0 0 200 200" style="enable-background:new 0 0 200 200;" xml:space="preserve">
<style type="text/css">
	.st0{fill:#E6FEEF;}
</style>
<path class="st0" d="M167.8,48.2l-61,61c-1.5,1.5-4,1.5-5.5,0l-61-61c-1.5-1.5-1.5-4,0-5.5l6.5-6.5c1.5-1.5,4-1.5,5.5,0l49,49
	c1.5,1.5,4,1.5,5.5,0l49-49c1.5-1.5,4-1.5,5.5,0l6.5,6.5C169.3,44.3,169.3,46.7,167.8,48.2z"/>
<path class="st0" d="M167.8,99.2l-61,61c-1.5,1.5-4,1.5-5.5,0l-61-61c-1.5-1.5-1.5-4,0-5.5l6.5-6.5c1.5-1.5,4-1.5,5.5,0l49,49
	c1.5,1.5,4,1.5,5.5,0l49-49c1.5-1.5,4-1.5,5.5,0l6.5,6.5C169.3,95.3,169.3,97.7,167.8,99.2z"/>
</svg>
