<?xml version="1.0" encoding="utf-8"?>
<!-- Generator: Adobe Illustrator 23.0.5, SVG Export Plug-In . SVG Version: 6.00 Build 0)  -->
<svg version="1.1" id="Layer_1" xmlns="http://www.w3.org/2000/svg" xmlns:xlink="http://www.w3.org/1999/xlink" x="0px" y="0px"
	 viewBox="0 0 24 24" style="enable-background:new 0 0 24 24;" xml:space="preserve">
<style type="text/css">
	.st0{fill:#FFFFFF;}
</style>
<title>Fiverr icon</title>
<path class="st0" d="M23,15.6c0.5,0,1-0.4,1-1s-0.4-1-1-1s-1,0.4-1,1S22.5,15.6,23,15.6L23,15.6z M22,11.9h-0.9
	c-0.5,0-0.8,0.4-0.8,1.1v2.5h-1.6v-3.6H18c-0.5,0-0.8,0.4-0.8,1.1v2.5h-1.6v-4.9h1.6v0.7c0.3-0.6,0.6-0.7,1.2-0.7h2v0.7
	c0.3-0.6,0.6-0.7,1.2-0.7H22C22,10.6,22,11.9,22,11.9z M15.2,13.4h-3.4c0.1,0.5,0.4,0.9,1,0.9c0.4,0,0.7-0.2,0.8-0.5l1.4,0.4
	c-0.4,0.8-1.2,1.4-2.3,1.4c-1.7,0-2.5-1.4-2.5-2.5c0-1.1,0.7-2.5,2.4-2.5c1.9,0,2.5,1.4,2.5,2.4C15.2,13.1,15.2,13.3,15.2,13.4
	L15.2,13.4z M13.7,12.4c0-0.4-0.3-0.8-0.9-0.8c-0.5,0-0.8,0.2-0.9,0.8H13.7z M7.5,15.4h1.4l1.8-4.9H9.1l-0.9,2.8l-0.9-2.8H5.7
	L7.5,15.4L7.5,15.4z M0.9,15.4h1.6v-3.6H4v3.6h1.6v-4.9H2.5v-0.3c0-0.3,0.2-0.5,0.6-0.5H4V8.4H2.8c-1.2,0-1.9,0.7-1.9,1.8v0.4H0v1.3
	h0.9V15.4L0.9,15.4z"/>
</svg>
