<?xml version="1.0" encoding="utf-8"?>
<!-- Generator: Adobe Illustrator 23.0.5, SVG Export Plug-In . SVG Version: 6.00 Build 0)  -->
<svg version="1.1" id="Layer_1" xmlns="http://www.w3.org/2000/svg" xmlns:xlink="http://www.w3.org/1999/xlink" x="0px" y="0px"
	 viewBox="0 0 1920 1080" style="enable-background:new 0 0 1920 1080;" xml:space="preserve">
<style type="text/css">
	.st0{fill:#121213;}
</style>
<g>
	<path class="st0" d="M-3.5,507.5l13.1,1.9c0,0,4.8,6.7,10.6,7.2s11.5,0,15.4,0s14.4-3.6,19.7-4.5c5.3-0.8,9.6,0.8,13.9,0
		c4.3-0.8,6.2-3.2,11.5-4.7s11.5-3.8,17.3-4.8c5.8-1,11,0.5,14.9,0s5.3-2.4,12,0c6.7,2.4,8.2,1.9,14.4,1.9s9.1-2.9,13.4,0
		s4.3,3.8,10.1,4.6s7.2,3.6,13.9,2.6s9.1-0.5,18.2-0.5c9.1,0,10.6,4.8,14.4,0c3.8-4.8-0.5-11,6.7-9.8s9.6,1.7,13,3.6
		c3.4,1.9,6.2,7,11.5,4c5.3-3,6.2-2.6,12-2.1c5.8,0.5,5.8,0.5,9.1-1.4s5.8-2.9,10.1-6.7s2.9-4.3,8.6-4.3s2.4-1,9.1,0
		s9.1,1.9,12.5,1.9c3.4,0,4.8-2.8,10.6-2.4c5.8,0.4,6.7,0,11.5,0c4.8,0,8.2-0.5,11.5,0s0.5,2,8.6-0.2s11-2.6,16.8,0
		c5.8,2.6,7.2,4.5,12.5,3.6s8.2-4.8,13.9-2.4s11,2.4,17.3,0.5c6.2-1.9,9.1-6.4,13.9-3.5s8.6,4.2,14.8,7.4s6.8,4.7,11.5,4.5
		s7.6-3.1,10.1,0s1.1,3.8,7.9,4.9c6.8,1.1,7.9,7.7,12.2,8c4.3,0.3,5.4-1.7,8.6,0s4.7,2.8,8.6,2.8c4,0,7.2-2.3,10.4-2.8
		s6.1-2.6,9.4-3s5.4-7.6,12.6-5.6c7.2,2,9.2,3.6,13.5,3.1s8.5-0.4,10.8,0.4c2.3,0.7,3.6,0.9,6.5-0.7s1.4-5,5.2-2.3
		c3.8,2.7,5.8,4.3,7.9,4.1s1.6-1.6,4.5-1.4s3.2,0.9,5.8,0.9s2.9-1.1,6.5,0c3.6,1.1,5,1.6,7.7,1.4s4.1,1.6,7.6-0.4
		c3.4-2,0.5-3.2,4.5-2.7c4,0.5,2.3,0.7,6.5,0.9s6.3,0,9.9,0.7c3.6,0.7,5.6,1.8,7.6,1.3s1.6-2,5,0.4c3.4,2.3,2.7,2.7,4.7,4.3
		s1.8,4.1,4.7,3.6c2.9-0.5,3.1-0.4,4.7,1.6s3.1,3.6,3.1,3.6s3.6-2.5,6.1,0s3.1,3.4,4.7,4.1c1.6,0.7,1.6,5.2,4.3,3.2s4.1-3.2,6.5-2
		c2.3,1.3,5.6,0.9,7.2,0.7s-0.4-2.1,3.4,1.8c3.8,3.8,5.9,5.8,7.9,6.2s4.1,1.4,5.6,2.2s6.3,0.9,6.3,0.9s4.9-0.7,7,0.5
		c2.2,1.3,2.5,2.9,4.9,1.6c2.3-1.3,3.6-2.5,6.3-2.7s5-1.1,6.3-2.9s0.4-3.8,2.5-4.9c2.2-1.1,2.9-0.9,4.1,0.7s3.4,6.8,7.6,7.2
		s8.6,1.8,11.5,1.8s4.9-0.1,7.4,1.6s5.6,2.9,8.1,2c2.5-0.9,2.3-1.1,6.8,0s5.9,1.1,7.6-0.5s4.3-3.4,5.8-5s-0.4-1.3,4.3-3.1
		s7.9-3.1,9.9-3.1c2,0,6.3-0.2,6.3-0.2s0.5-0.5,5-0.2s7.4-0.4,8.6-2s1.1-1.6,2.5-3.1s1.8-2.3,3.2-2.9s2.3-1.1,3.6-1.3s3.2-0.4,5-0.7
		s2.9-0.9,4.1-0.9s1.1-0.4,4,1.1s4.9,2.9,6.5,3.2s1.1,0.5,4.5,0.9c3.4,0.4,1.3,2.3,4.3,0.4s2.3-2.7,4.5-3.6c2.2-0.9,4.1-0.1,6.9,1.7
		c2.8,1.8-0.2,2,3.3,2.2s2.5-1.1,5.2,0.3c2.7,1.3,2.8,2.1,5.4,1.3s1.9-1.5,5.1-0.7s3.9,1.3,5.7,0.8s1.1-0.1,3.4-1.1
		c2.3-1,2.3-0.7,3.7-1.7c1.3-1,1.4-1.4,3.6-2.3s2.5-1.3,4-1.5c1.4-0.2,2-0.4,3.8-0.4s1.4-0.1,3.8-0.1s3.7-0.2,5.4,0s4.1,0.7,4.1,0.7
		l2.9,1c0,0,2.5,2.3,3.8,2.8s1.8,2.3,1.7,0.3c-0.1-2-0.8-3.2,0.5-2.3c1.3,0.8,1.2,2.3,2.8,3.7c1.6,1.3,1.9,1.7,3.5,2.5
		c1.6,0.7,2.9,0.6,3.9,0.5s2.4,0.4,3.3,0.9c0.9,0.5,3.4,1.4,3.4,1.4s1.3-0.8,3.3-0.2c2,0.7,4.9,1.6,5.5,2.5c0.6,0.9,0.8,1.3,2.2,0.9
		c1.4-0.4,2.1-0.6,3.3-0.1s2.4,0.3,4,0.8s1.6,0.7,3.7,1.2s3.6,0.5,4.6,0.5c1,0,5.5-2.8,9.5-2.1c4,0.7,4.3,4.7,8.3,5.6s4,0.2,8.3,0
		s4,1.6,7.9,0s2.5-2.4,6.1-2.7c3.6-0.4,4.3,0.7,7.2-1.1s2.5-2.5,5-2.5s5.4,0,7.2,0.4s4,1.1,7.2-0.4s2.9-2.5,5.4-2.9s4.3-1.1,7.2-1.1
		s3.2-0.4,5,0s3.2,0.7,6.8,0.7s5.4,0,6.5-0.7s2.9-1.8,2.9-1.8s1.4-1.8,3.6-2.9s5.4-1.8,5.4-1.8h6.8c0,0,2.5,0.4,4,0.4
		s1.4-0.7,3.2-1.8s4-2.2,4-2.2s2.2,0,4,0s3.6,0,3.6,0l3.6,1.1l4.7-0.4l1.8-2.5c3.2,0,5,1.4,5,1.4c4,2.2,6.1,2.2,6.1,2.2
		s4.3-0.7,6.1-1.8s1.8-1.8,3.6-1.8c1.8,0,3.2,0.7,6.1,0.7s5.4,1.1,7.6-1.1c2.2-2.2,3.2-4.2,3.2-4.2s0.4-1.7,2.9,0s6.1,1.7,7.2,1.7
		s6.5-1.7,6.5-1.7s2.2-0.6,4.3,0s1.8,1.3,5.4-1.6s-0.7-1.8,3.6-2.9s6.1-1.4,7.6-1.1c1.4,0.4,4.7,0.4,4.7,0.4s2.5,0.7,4-0.7
		c1.4-1.4,1.4-2.5,3.6-2.5s5.8-0.4,7.2,0s3.6,1.1,5,0.4c1.4-0.7,2.5-1.8,3.6-2.5s-0.4,0.7,2.5-1.8s1.8-2.5,4.3-2.9
		c2.5-0.4,5.8-0.7,5.8-0.7s0.7,0,2.2,0c1.4,0,3.2,1.1,4.3,1.4c1.1,0.4-6.8-0.4,1.1,0.4c7.9,0.7,5.8,0.7,11.5,0.7s5,0,8.6,0
		s4.3,0.7,6.5,2.2s3.6,3.6,6.5,4.3c2.9,0.7,3.6,2.2,6.5,0.7s6.5-2.9,6.5-2.9s1.4-2.2,4.3-2.2s2.2,0,5.8,0s-1.4-1.4,3.6,0
		c5,1.4,5.8,2.9,8.6,2.9s4.3-2.9,7.9-1.4s3.6,1.4,3.6,1.4s4.3,3.6,6.5,0c2.2-3.6,2.2-3.6,2.2-3.6l5.8-1.4c0,0,3.6,0.7,6.5,0.7
		s1.4,1.4,7.2,0.7s8.6-1.4,8.6-1.4c5,5,4.3,5.8,7.9,5.8s3.6,0,3.6,0s3.6-2.2,6.5,0c2.9,2.2,13.7,2.2,13.7,2.2s-1.4,6.8,3.6,5.5
		c5-1.2-2.9-0.5,5-1.2s6.5,3.9,10.8,1.2c4.3-2.7-7.2-4.8,4.3-2.7c11.5,2.2,10.8,2.4,14.4,2.7s7.2,0.5,9.4,0s0.7,1.9,6.5,0s13,0,13,0
		s3.6,0.5,8.6,0s5.8,1.2,12.2,0s5.8-1.7,9.4,0s9.4,0,9.4,0s3.6-2.4,6.5,0s7.2,0,7.2,0s2.9,4.1,5,0s1.4-5.5,5.8-7.7
		c4.3-2.2,4.3-2.2,4.3-2.2s7.9-1.4,10.1-0.7c2.2,0.7,2.2,0.7,2.2,0.7s9.4,2.9,12.2,2.9s5.8-2.2,7.9-0.7c2.2,1.4,2.2,1.4,7.9,4.3
		s10.8,4.6,14.4,3.4s4.3-0.5,7.2-3.4s0,0.7,2.9-2.9c2.9-3.6,0.7,0.7,2.9-3.6s1.4-5,5-6.5c3.6-1.4-3.6-0.7,3.6-1.4s11.5-0.7,11.5-0.7
		l9.4,1.4c0,0,5.8-2.9,9.4-3.6s4.3-0.7,7.2-0.7s4.3,0.7,7.2,1.4s5,2.2,7.9,2.2s5,0,8.6-0.7s0,0,3.6-0.7s6.5,2.2,9.4,2.2
		s2.9,1.4,7.2,0s7.2-3.6,7.2-3.6l5.8-2.9c0,0,2.9,0,5-0.7s6.5-2.2,6.5-2.2l4.3-3c0,0,5-0.1,7.2,0s6.5,0,6.5,0s2.9,3,5,5.2
		s-2.9-0.7,2.2,2.2s-13,0,5,2.9s28.1-0.7,28.1-0.7s4.3-3.6,5.8-5.8c1.4-2.2,5-3.8,5-3.8s7.9,0.6,10.1,0c2.2-0.6,3.6-0.9,5.8,0
		s3.6-2.7,8.6-0.5c5,2.1,7.9-0.7,7.9-0.7h8.6l9.4-5.8c0,0,0.7-4.3,5.8-2.9s10.8,4.3,10.8,4.3l4.3,5c0,0,2.9,2.9,5,4.3
		s4.3,1.4,7.9,2.2s2.2-2.2,7.9,2.2s5.8,4.3,5.8,4.3s4.3,0,9.4,4.3s0.7,2.9,5,4.3c4.3,1.4,5.8,0.7,8.6,0c2.9-0.7,2.1-0.7,6.5-0.7
		s4.4,0,4.4,0h58.2V1119H-55.2V502.7L-3.5,507.5z"/>
</g>
</svg>
